<?xml version="1.0" standalone="no"?>
<!DOCTYPE svg PUBLIC "-//W3C//DTD SVG 20010904//EN"
 "http://www.w3.org/TR/2001/REC-SVG-20010904/DTD/svg10.dtd">
<svg version="1.0" xmlns="http://www.w3.org/2000/svg"
 width="512.000000pt" height="512.000000pt" viewBox="0 0 512.000000 512.000000"
 preserveAspectRatio="xMidYMid meet">

<g transform="translate(0.000000,512.000000) scale(0.100000,-0.100000)"
fill="#000000" stroke="none">
<path d="M908 3970 c-107 -22 -143 -34 -239 -75 -459 -199 -734 -707 -654
-1205 21 -126 73 -273 135 -380 l50 -88 0 -688 c0 -388 4 -714 10 -747 12 -77
45 -140 98 -189 75 -68 117 -81 279 -86 l142 -4 6 -40 c14 -78 90 -211 165
-286 241 -241 623 -240 865 3 75 76 135 179 159 270 l12 50 510 5 c542 5 534
5 602 57 30 23 35 24 50 9 39 -34 116 -59 203 -64 l86 -5 17 -61 c71 -256 323
-446 591 -446 276 0 523 197 595 474 10 39 19 63 19 52 1 -17 10 -18 134 -14
116 3 139 7 189 30 66 31 123 86 158 154 l25 49 0 575 0 575 -23 75 c-42 133
-100 226 -343 550 -272 363 -346 442 -469 504 -91 46 -107 47 -623 44 l-487
-3 0 146 c0 143 -1 147 -31 207 -17 34 -49 77 -71 96 -76 66 -80 66 -597 66
l-465 0 -80 78 c-180 174 -376 277 -605 317 -115 20 -304 18 -413 -5z m422
-205 c389 -92 662 -400 710 -798 13 -110 7 -192 -21 -315 -73 -317 -313 -570
-636 -669 -80 -24 -103 -27 -253 -27 -144 -1 -175 2 -245 22 -338 97 -589 366
-659 705 -20 97 -21 276 -1 371 53 257 225 490 458 620 76 42 219 92 307 105
83 13 256 5 340 -14z m1607 -409 l28 -24 3 -1269 c2 -891 -1 -1276 -9 -1294
-5 -15 -20 -32 -32 -38 -16 -8 -155 -11 -506 -9 l-485 3 -12 50 c-40 154 -170
312 -317 385 -90 44 -191 70 -277 70 -177 0 -366 -93 -479 -236 -48 -61 -107
-179 -116 -235 l-7 -39 -125 0 -125 0 -34 34 -34 34 0 601 c0 331 3 601 6 601
3 0 23 -13 43 -28 56 -44 149 -97 228 -130 604 -255 1294 56 1507 679 84 247
72 550 -32 798 l-30 71 388 0 389 0 28 -24z m1243 -510 c65 -35 200 -156 200
-180 0 -3 -121 -6 -270 -6 -314 0 -344 -6 -428 -88 -92 -90 -105 -151 -100
-462 3 -205 5 -229 25 -272 28 -62 100 -138 160 -168 l48 -25 550 -5 550 -5 0
-416 c0 -453 0 -456 -57 -485 -18 -10 -62 -14 -138 -14 -107 0 -110 -1 -111
-22 0 -13 -7 6 -15 42 -63 294 -345 508 -640 486 -154 -11 -277 -68 -390 -180
-79 -79 -134 -170 -160 -263 l-17 -63 -66 0 c-67 0 -99 13 -128 50 -17 20 -19
2011 -2 2041 5 11 25 29 42 40 31 19 49 19 472 17 409 -3 442 -4 475 -22z
m493 -563 c72 -98 147 -206 165 -240 33 -64 72 -165 72 -190 0 -11 -86 -13
-526 -11 l-526 3 -34 37 -34 38 0 227 c0 252 3 267 60 295 31 16 71 18 363 18
l327 0 133 -177z m-3172 -1299 c84 -40 158 -114 201 -201 31 -63 33 -74 33
-168 0 -92 -3 -106 -32 -167 -39 -84 -109 -155 -194 -200 -61 -31 -69 -33
-174 -33 -102 0 -115 2 -176 31 -118 56 -207 173 -231 303 -23 122 23 259 117
353 87 87 169 119 300 115 77 -2 99 -6 156 -33z m2668 -3 c84 -43 154 -115
194 -199 30 -62 32 -75 32 -172 0 -103 -1 -106 -39 -178 -45 -84 -111 -148
-194 -189 -52 -26 -67 -28 -167 -28 -104 0 -114 2 -175 32 -249 122 -311 443
-125 642 92 98 176 132 315 128 84 -3 102 -7 159 -36z"/>
<path d="M1105 3682 c-11 -2 -28 -11 -39 -21 -42 -37 -46 -66 -46 -375 l0
-295 -25 -37 c-14 -20 -25 -51 -25 -67 0 -26 -19 -50 -119 -152 -70 -70 -122
-132 -126 -148 -22 -87 64 -155 143 -113 15 8 76 64 137 125 88 89 115 111
138 111 40 0 82 24 113 66 39 51 40 124 2 182 l-28 42 0 295 c0 349 -3 364
-78 384 -15 4 -36 5 -47 3z"/>
</g>
</svg>
