<?xml version="1.0" standalone="no"?>
<!DOCTYPE svg PUBLIC "-//W3C//DTD SVG 20010904//EN"
 "http://www.w3.org/TR/2001/REC-SVG-20010904/DTD/svg10.dtd">
<svg version="1.0" xmlns="http://www.w3.org/2000/svg"
 width="64.000000pt" height="64.000000pt" viewBox="0 0 64.000000 64.000000"
 preserveAspectRatio="xMidYMid meet">

<g transform="translate(0.000000,64.000000) scale(0.100000,-0.100000)"
fill="#000000" stroke="none">
<path d="M105 535 c-25 -24 -25 -26 -25 -215 0 -257 -17 -240 240 -240 257 0
240 -17 240 240 0 257 17 240 -240 240 -189 0 -191 0 -215 -25z m270 -80 c50
-49 15 -135 -55 -135 -41 0 -80 39 -80 80 0 41 39 80 80 80 19 0 40 -9 55 -25z
m-50 -158 c22 1 49 3 60 5 31 5 24 -25 -8 -40 l-29 -14 33 -34 c26 -26 30 -37
21 -46 -9 -9 -20 -4 -47 22 l-35 34 -35 -34 c-27 -26 -38 -31 -47 -22 -9 9 -4
20 22 47 l33 34 -25 10 c-15 5 -29 15 -33 20 -11 19 5 32 28 24 12 -4 40 -7
62 -6z"/>
<path d="M290 425 c-26 -32 13 -81 48 -59 22 14 27 41 12 59 -16 19 -44 19
-60 0z"/>
</g>
</svg>
