<?xml version="1.0" standalone="no"?>
<!DOCTYPE svg PUBLIC "-//W3C//DTD SVG 20010904//EN"
 "http://www.w3.org/TR/2001/REC-SVG-20010904/DTD/svg10.dtd">
<svg version="1.0" xmlns="http://www.w3.org/2000/svg"
 width="1024.000000pt" height="1024.000000pt" viewBox="0 0 1024.000000 1024.000000"
 preserveAspectRatio="xMidYMid meet">

<g transform="translate(0.000000,1024.000000) scale(0.100000,-0.100000)"
fill="#000000" stroke="none">
<path d="M1548 9750 c-164 -28 -316 -180 -348 -350 -6 -33 -10 -404 -10 -996
l0 -943 42 -11 c57 -16 70 -30 49 -56 -14 -17 -19 -18 -40 -8 -40 20 -52 8
-49 -49 3 -45 6 -51 37 -68 36 -19 81 -58 79 -68 -1 -3 2 -14 7 -24 15 -36
-38 -110 -91 -127 l-34 -12 0 -1819 c0 -1274 3 -1819 11 -1819 5 0 8 -4 5 -9
-3 -5 1 -12 10 -15 24 -9 31 -7 14 4 -21 14 3 13 35 -2 24 -11 35 -38 15 -38
-5 0 -9 -5 -7 -11 1 -6 -4 -14 -12 -17 -8 -2 -11 0 -8 6 8 11 -29 23 -49 15
-9 -3 -14 -21 -14 -54 0 -43 3 -51 25 -61 13 -6 22 -15 19 -19 -3 -5 1 -6 8
-4 8 3 27 -8 42 -24 24 -25 27 -33 17 -45 -7 -9 -11 -21 -8 -28 3 -8 6 -5 6 6
1 15 4 17 12 9 25 -25 -30 -105 -86 -123 l-35 -12 0 -142 c0 -79 5 -167 10
-196 29 -151 139 -278 288 -332 47 -17 88 -21 244 -25 l187 -5 3 -307 3 -306
27 -58 c33 -71 121 -165 189 -202 86 -47 137 -55 344 -55 105 0 195 -4 200 -8
6 -4 16 -17 22 -29 12 -20 10 -25 -17 -45 -34 -25 -39 -48 -10 -48 19 0 20 -7
20 -140 0 -77 -3 -139 -7 -139 -26 4 -29 -4 -22 -73 8 -78 23 -128 38 -128 6
0 17 10 25 22 9 12 16 18 16 13 0 -5 -10 -19 -21 -31 l-21 -23 21 -34 c56 -91
183 -177 292 -197 68 -13 5332 -13 5411 -1 134 22 260 120 321 248 l32 68 3
983 c2 700 -1 982 -8 982 -6 0 -8 5 -4 12 4 6 9 60 12 120 4 103 3 110 -17
125 -16 10 -20 21 -16 36 4 15 3 18 -3 9 -7 -11 -10 -10 -16 3 -9 26 -7 42 4
25 6 -9 10 -10 10 -3 0 6 -4 15 -10 18 -19 12 -10 52 20 93 l30 42 0 1675 c0
1412 -2 1681 -14 1708 -15 35 -255 277 -274 277 -7 0 -12 6 -12 13 0 17 -114
117 -134 117 -8 0 -18 5 -21 10 -5 8 -11 7 -21 -1 -8 -7 -14 -7 -14 -1 0 5
-13 12 -29 15 -31 7 -41 22 -47 81 -2 21 -10 49 -19 62 -8 13 -15 30 -15 39 0
9 -7 18 -15 21 -8 4 -12 10 -9 15 3 5 -5 9 -18 10 -23 1 -23 1 2 9 21 7 22 8
5 10 -17 2 -16 3 5 9 l25 7 3 544 c1 333 -2 566 -8 599 -24 132 -120 253 -247
314 -67 31 -71 32 -233 35 -91 2 -169 7 -173 12 -5 4 -8 61 -8 127 l1 118 -54
54 c-30 30 -53 58 -50 62 2 4 0 11 -6 14 -6 4 -10 3 -9 -2 1 -4 1 -38 0 -75
l-1 -68 -34 0 -34 0 -1 146 c-1 97 2 143 9 139 5 -3 10 -1 10 4 0 6 -4 11 -10
11 -5 0 -10 21 -10 46 0 27 4 43 10 39 6 -3 10 -1 10 5 0 6 10 10 23 8 21 -3
22 -7 23 -106 0 -56 4 -105 7 -109 4 -3 25 13 48 35 22 23 45 40 50 36 5 -3 9
-2 8 3 -1 4 1 16 6 26 11 25 -10 114 -42 177 -54 109 -187 207 -312 230 -65
12 -5541 12 -5613 0z m1160 -303 c7 -5 34 -7 65 -2 28 3 65 7 80 7 20 1 24 3
15 9 -21 14 8 11 72 -6 45 -12 141 -15 518 -15 260 0 462 4 462 9 0 10 46 8
70 -2 12 -6 1994 -3 2090 2 14 1 44 -1 67 -5 26 -4 61 0 96 10 62 18 81 20 73
7 -7 -11 -5 -11 435 -19 368 -7 388 -8 409 -27 13 -11 29 -35 37 -52 7 -18 19
-33 27 -33 7 0 23 -9 36 -20 20 -17 20 -21 7 -34 -8 -8 -17 -12 -21 -9 -3 4
-6 0 -6 -7 0 -11 -3 -11 -12 -2 -23 23 -28 12 -28 -58 0 -73 1 -76 28 -61 12
6 24 4 40 -9 l22 -18 -26 -21 c-14 -11 -35 -23 -46 -27 -19 -6 -20 -11 -14
-99 4 -51 4 -104 0 -119 l-6 -26 -1652 -1 c-908 0 -1662 -1 -1676 -1 -14 0
-376 1 -805 1 -841 1 -837 1 -928 -52 -76 -45 -133 -103 -173 -179 l-39 -73
-5 -633 c-3 -347 -3 -632 -2 -632 2 0 19 15 37 33 19 19 40 35 47 36 48 7 97
7 118 -1 24 -9 24 -10 6 -24 -12 -8 -15 -14 -7 -14 11 0 11 -3 1 -15 -9 -11
-16 -13 -24 -5 -5 5 -21 10 -34 10 -27 0 -82 -29 -83 -45 -1 -22 -8 -47 -13
-52 -10 -11 62 -73 84 -73 12 0 34 7 51 15 22 12 34 13 49 5 34 -18 22 -42
-34 -65 -27 -12 -42 -13 -49 -6 -6 6 -16 11 -22 11 -5 0 -3 -5 5 -10 13 -9 13
-10 0 -10 -28 0 -98 38 -110 59 -6 12 -14 21 -18 21 -4 0 -7 -884 -7 -1965 0
-1457 3 -1965 11 -1965 7 0 14 9 17 19 13 51 134 71 198 34 35 -21 36 -27 7
-47 -19 -14 -25 -14 -44 -2 -12 8 -41 14 -67 13 -25 -1 -41 -5 -36 -8 5 -3 1
-13 -10 -23 -15 -14 -19 -27 -15 -54 8 -67 65 -98 125 -68 23 11 36 13 50 5
38 -20 13 -50 -56 -69 -41 -12 -50 -11 -76 4 -16 9 -29 15 -29 11 0 -3 -11 2
-25 11 -14 9 -23 20 -20 24 3 4 -2 10 -10 14 -17 6 -20 -56 -16 -321 l2 -133
-163 0 c-220 0 -244 14 -249 146 -2 33 -7 67 -11 76 -6 12 -5 18 4 19 10 0 10
2 1 5 -9 4 -9 13 -2 30 5 14 9 43 9 64 0 35 -3 39 -30 45 -17 4 -30 13 -30 21
0 9 -4 13 -9 10 -4 -3 -16 3 -26 14 -14 15 -16 34 -14 97 l4 78 -43 3 c-37 3
-42 6 -42 28 0 23 3 25 34 20 38 -6 46 4 46 55 0 25 4 29 29 29 27 0 30 -3 33
-37 2 -31 7 -39 26 -41 l22 -3 0 1778 c-1 978 -5 1797 -9 1821 -5 23 -5 42 0
42 5 0 4 11 -1 25 -6 15 -6 26 0 30 6 4 10 23 10 45 0 32 -4 39 -25 44 -27 7
-87 58 -84 72 1 5 1 42 0 82 l-1 72 -31 0 c-21 0 -28 4 -23 13 5 8 2 8 -9 -2
-15 -12 -17 -11 -17 13 0 22 4 26 29 26 49 0 57 7 53 45 -4 34 -3 35 29 35 26
0 30 -3 19 -10 -13 -8 -12 -10 3 -10 20 0 21 -4 7 -30 -8 -15 -6 -20 10 -25
11 -3 24 -3 30 0 7 4 10 347 10 1015 0 631 4 1018 10 1034 5 14 24 35 42 46
32 19 51 20 549 20 424 0 519 2 534 14 19 14 39 12 63 -7z m4742 -522 c6 -8
10 -20 7 -27 -4 -8 -6 -7 -6 4 -1 9 -9 22 -18 27 -10 6 -13 11 -7 11 6 0 17
-7 24 -15z m-198 -22 c-3 -16 -7 -22 -10 -15 -4 13 4 42 11 42 2 0 2 -12 -1
-27z m126 1 c0 -15 -4 -22 -10 -16 -5 5 -6 16 -2 25 9 23 12 21 12 -9z m-38
12 c0 -3 -4 -8 -10 -11 -5 -3 -10 -1 -10 4 0 6 5 11 10 11 6 0 10 -2 10 -4z
m93 -23 c-7 -2 -21 -2 -30 0 -10 3 -4 5 12 5 17 0 24 -2 18 -5z m-136 -39 c-3
-3 -12 -4 -19 -1 -8 3 -5 6 6 6 11 1 17 -2 13 -5z m130 0 c-3 -3 -12 -4 -19
-1 -8 3 -5 6 6 6 11 1 17 -2 13 -5z m379 -360 c65 -31 64 -26 64 -509 0 -241
-4 -435 -9 -433 -4 2 -94 86 -199 187 -105 101 -201 191 -214 200 -21 15 -204
16 -2188 19 -1343 1 -2189 -1 -2227 -7 -136 -21 -272 -123 -331 -248 l-27 -58
-5 -1118 c-3 -614 -1 -1117 3 -1117 5 0 5 -4 2 -10 -3 -5 0 -8 7 -5 7 3 19 -4
26 -15 11 -19 9 -24 -18 -50 -35 -33 -38 -50 -10 -50 19 0 20 -7 20 -140 0
-127 -2 -140 -18 -140 -14 0 -17 -9 -17 -57 1 -38 5 -58 14 -61 9 -3 10 -6 2
-11 -9 -6 -11 -418 -11 -1604 l0 -1597 -185 0 -185 0 -32 29 -33 29 -3 561
c-2 399 -6 561 -13 561 -8 0 -8 4 -2 13 7 8 10 726 11 2032 0 1111 -2 2010 -6
1998 l-7 -22 -11 24 c-7 13 -9 24 -5 23 32 -4 33 1 27 140 -3 75 -2 417 2 759
l7 621 25 27 c14 15 34 31 45 35 11 5 1246 9 2743 9 2501 1 2727 0 2758 -15z
m-586 -1413 l0 -558 23 -33 c12 -18 35 -43 50 -54 28 -21 38 -21 608 -24 l579
-2 0 -1581 c0 -1502 1 -1581 18 -1574 45 19 131 8 117 -15 -3 -6 1 -7 9 -4 23
9 76 -70 74 -112 -1 -18 -5 -31 -9 -28 -5 3 -6 -2 -3 -11 4 -10 -8 -29 -35
-55 -37 -36 -44 -38 -66 -28 -19 8 -22 14 -13 20 7 4 9 8 3 8 -5 0 -17 -5 -25
-10 -13 -9 -13 -10 0 -10 13 0 13 -1 0 -11 -12 -8 -10 -9 7 -4 12 3 24 2 26
-2 7 -12 -50 -14 -78 -3 l-25 10 1 -88 c0 -63 3 -81 10 -67 8 16 8 15 2 -5 -4
-14 -10 -461 -13 -995 -5 -905 -6 -972 -23 -996 -9 -14 -29 -31 -43 -37 -18
-9 -155 -12 -469 -12 -398 0 -493 -5 -425 -23 20 -5 27 -31 11 -41 -5 -4 -7 3
-4 14 4 13 0 20 -10 20 -8 0 -19 6 -25 13 -16 19 -112 21 -112 3 0 -8 -4 -17
-9 -21 -6 -3 -8 3 -6 13 3 17 -4 19 -76 19 -73 0 -79 -1 -80 -21 0 -20 -1 -20
-9 2 -12 28 -64 31 -79 5 -10 -17 -10 -17 -11 0 0 29 -30 20 -31 -10 l-2 -28
-4 28 c-3 21 -10 27 -29 27 -16 0 -24 -6 -25 -17 -1 -17 -2 -17 -6 0 -3 10
-14 17 -30 17 -23 0 -25 -3 -21 -35 2 -21 0 -35 -7 -35 -7 0 -9 14 -7 35 4 32
2 35 -22 35 -20 0 -26 -5 -27 -22 l0 -23 -9 23 c-8 19 -17 22 -60 22 -33 0
-50 -4 -51 -12 0 -10 -2 -10 -6 0 -2 6 -14 12 -25 12 -15 0 -18 -5 -14 -22 l6
-23 -11 23 c-16 30 -58 30 -60 0 l-2 -23 -4 23 c-3 15 -11 22 -29 22 -13 0
-24 -6 -25 -12 0 -10 -2 -10 -6 0 -7 17 -30 15 -37 -3 -3 -8 -13 -14 -23 -14
-17 1 -17 2 0 6 9 2 17 8 17 13 0 5 -80 9 -180 8 -158 -1 -180 -3 -180 -17 0
-14 -2 -14 -10 -1 -11 18 -97 25 -116 9 -10 -8 -14 -8 -14 0 0 8 -265 11 -992
11 -875 -1 -991 -2 -974 -15 11 -8 15 -15 9 -15 -7 0 -18 6 -25 13 -8 9 -38
13 -83 13 -56 -1 -69 -4 -67 -16 2 -11 -1 -10 -12 3 -9 12 -24 17 -43 15 -23
-2 -28 -8 -28 -30 1 -14 -3 -24 -7 -22 -4 3 -8 15 -8 28 0 20 -5 23 -55 24
-49 1 -57 -1 -65 -21 -8 -21 -9 -21 -9 -2 -1 17 -8 21 -46 23 l-45 2 0 -35 c0
-19 -4 -35 -8 -35 -4 0 -6 16 -4 35 4 32 2 35 -22 35 -18 0 -26 -5 -26 -17 -1
-17 -1 -17 -11 0 -13 22 -49 22 -49 0 -1 -17 -1 -17 -11 0 -12 21 -109 25
-109 5 0 -9 -2 -10 -8 -2 -4 6 -28 12 -54 12 l-48 1 -2 -37 -1 -37 -4 38 c-4
32 -8 37 -29 37 -13 0 -24 -6 -24 -12 0 -10 -2 -10 -8 -1 -4 7 -31 11 -64 11
-41 -1 -66 5 -94 21 -21 12 -46 23 -55 24 -10 1 -15 5 -13 9 3 5 10 5 16 2 8
-5 9 1 5 17 -4 13 -7 42 -7 65 0 29 -4 41 -15 41 -8 0 -12 -3 -10 -7 7 -12
-38 -28 -75 -28 -49 0 -102 17 -93 31 4 6 0 8 -10 4 -25 -9 -31 11 -12 39 13
20 19 23 31 14 7 -7 12 -15 10 -19 -2 -3 21 -7 51 -9 46 -3 60 1 79 19 22 20
22 23 8 50 -8 16 -19 29 -25 29 -6 0 -7 4 -4 10 3 6 -1 7 -9 4 -9 -3 -16 -1
-16 6 0 6 -4 9 -9 6 -14 -9 -90 33 -108 60 -28 43 -21 83 20 121 20 18 45 33
54 33 16 0 16 -2 3 -11 -12 -9 -12 -10 3 -5 10 3 24 6 30 6 7 0 6 4 -3 10 -21
14 -1 12 53 -4 l47 -14 0 1734 c0 1380 -3 1734 -12 1734 -10 0 -10 2 -2 8 8 4
12 49 13 126 l2 119 -28 -18 c-44 -29 -176 -25 -158 6 4 5 -1 19 -11 30 -25
28 -10 34 33 14 41 -20 87 -22 108 -5 22 18 24 58 4 76 -10 9 -15 23 -12 32 4
13 3 14 -5 4 -8 -11 -20 -9 -67 13 -32 16 -60 36 -62 46 -3 10 -9 16 -14 13
-5 -3 -9 1 -9 10 0 8 -3 22 -7 32 -5 13 -3 15 7 9 9 -5 11 -4 6 4 -8 12 2 56
11 47 3 -3 13 4 22 15 24 30 91 42 135 24 19 -8 38 -15 41 -15 3 0 5 488 5
1085 0 950 2 1090 15 1115 33 64 -132 59 2148 60 l2077 0 0 -559z m585 371
c22 -16 35 -40 29 -56 -8 -22 -21 -20 -29 4 -3 11 -11 20 -16 20 -5 0 -3 -10
6 -23 8 -13 12 -27 8 -30 -13 -13 -23 -7 -24 16 -1 18 -2 18 -6 4 -5 -18 -5
-18 -19 0 -16 21 -18 37 -4 28 5 -3 7 0 4 8 -3 8 -1 18 5 22 6 3 11 1 11 -5 0
-6 5 -8 10 -5 6 4 8 11 5 16 -7 11 6 12 20 1z m249 -3 c55 -15 70 -32 48 -52
-12 -11 -29 -14 -59 -10 -24 3 -40 10 -37 15 7 11 -32 -10 -58 -31 -10 -8 -18
-19 -18 -25 0 -6 5 -4 10 4 8 12 10 11 10 -7 0 -23 27 -46 70 -58 46 -14 100
-59 109 -92 10 -35 4 -76 -10 -67 -5 3 -7 -1 -4 -8 8 -24 -54 -76 -75 -63 -6
4 -10 1 -10 -6 0 -14 -86 -5 -106 12 -8 6 -14 8 -14 3 0 -13 123 -134 136
-134 7 0 14 3 17 8 2 4 2 1 0 -6 -4 -16 16 -56 24 -48 4 3 12 -3 20 -14 16
-22 39 -26 45 -8 3 8 7 6 11 -5 3 -9 3 -16 -1 -16 -26 4 -20 -7 28 -56 l54
-55 -357 0 -357 0 0 340 c0 187 3 340 8 340 7 0 80 -66 180 -163 24 -23 43
-35 42 -27 -1 8 -2 34 -1 58 1 40 3 42 31 42 17 0 30 -5 31 -12 2 -38 0 -124
-2 -133 -10 -32 52 -85 75 -66 7 6 17 7 21 3 5 -4 5 -1 0 6 -5 10 -10 11 -18
3 -6 -6 -16 -11 -21 -11 -6 0 -3 7 8 15 16 12 23 11 54 -6 44 -23 70 -24 100
-3 23 16 31 67 12 79 -6 4 -8 10 -5 15 3 5 -5 10 -17 12 -13 2 -22 9 -20 17 3
12 0 12 -12 2 -12 -10 -20 -9 -43 5 -41 26 -74 66 -68 81 3 9 0 11 -6 7 -7 -4
-10 -1 -7 7 3 8 11 13 18 11 10 -2 10 1 0 14 -13 14 -11 19 13 40 16 13 24 24
20 25 -9 1 66 27 82 28 6 1 28 -4 49 -10z m-5891 -166 c4 -3 -1 -12 -11 -19
-22 -17 -38 -18 -23 -1 6 8 8 17 4 20 -3 4 0 7 9 7 8 0 18 -3 21 -7z m-830
-339 c-3 -9 -12 -9 -33 -1 -51 19 -86 -31 -59 -86 10 -21 10 -21 -5 -3 -38 47
-1 107 63 103 24 -1 37 -6 34 -13z m6826 0 c11 -10 -8 -9 -44 3 l-40 13 40 -6
c22 -3 42 -8 44 -10z m-6119 -18 c0 -2 -8 -10 -17 -17 -16 -13 -17 -12 -4 4
13 16 21 21 21 13z m6290 -6 c0 -5 -4 -10 -10 -10 -5 0 -10 5 -10 10 0 6 5 10
10 10 6 0 10 -4 10 -10z m-6231 -42 c1 -30 -2 -38 -16 -38 -13 0 -14 3 -5 12
16 16 15 33 -3 52 -14 13 -13 15 3 13 14 -1 19 -10 21 -39z m6178 16 c2 -13 1
-15 -4 -4 -3 8 -11 19 -17 23 -7 6 -6 7 4 4 8 -2 16 -12 17 -23z m173 -9 c0
-5 -5 -3 -10 5 -5 8 -10 20 -10 25 0 6 5 3 10 -5 5 -8 10 -19 10 -25z m-6986
10 c3 -8 1 -15 -4 -15 -6 0 -10 7 -10 15 0 8 2 15 4 15 2 0 6 -7 10 -15z m-80
-10 c3 -8 1 -15 -4 -15 -6 0 -10 7 -10 15 0 8 2 15 4 15 2 0 6 -7 10 -15z
m583 -17 c-3 -7 -5 -2 -5 12 0 14 2 19 5 13 2 -7 2 -19 0 -25z m6526 17 c-3
-9 -8 -14 -10 -11 -3 3 -2 9 2 15 9 16 15 13 8 -4z m-7153 -11 c0 -17 -27 -43
-45 -44 -5 0 1 7 13 16 29 20 28 32 -5 37 -26 4 -26 4 5 6 24 1 32 -3 32 -15z
m672 -9 c3 -13 1 -22 -3 -19 -9 5 -13 44 -5 44 2 0 6 -11 8 -25z m125 3 c-3
-8 -6 -5 -6 6 -1 11 2 17 5 13 3 -3 4 -12 1 -19z m6016 15 c-7 -2 -19 -2 -25
0 -7 3 -2 5 12 5 14 0 19 -2 13 -5z m50 -18 c-7 -21 -13 -19 -13 6 0 11 4 18
10 14 5 -3 7 -12 3 -20z m179 -10 c3 -13 1 -22 -3 -19 -9 5 -13 44 -5 44 2 0
6 -11 8 -25z m-6166 -41 c-3 -8 -11 -14 -18 -14 -9 0 -9 3 0 12 7 7 13 21 13
33 1 17 2 18 6 2 3 -10 2 -25 -1 -33z m6054 31 c-7 -8 -24 -14 -39 -14 l-26 2
25 4 c14 3 29 9 35 14 15 15 19 10 5 -6z m203 -2 c-3 -7 -6 -13 -8 -13 -2 0
-5 6 -8 13 -3 8 1 14 8 14 7 0 11 -6 8 -14z m-7028 -3 c-3 -5 -12 -10 -18 -10
-7 0 -6 4 3 10 19 12 23 12 15 0z m720 -8 c-3 -3 -11 0 -18 7 -9 10 -8 11 6 5
10 -3 15 -9 12 -12z m6312 -28 c-3 -3 -12 -4 -19 -1 -8 3 -5 6 6 6 11 1 17 -2
13 -5z m-5687 -1766 c0 -4 -4 -8 -10 -8 -5 0 -10 8 -10 18 0 14 -2 15 -10 2
-8 -12 -10 -10 -10 9 0 23 1 24 20 6 11 -10 20 -22 20 -27z m179 -131 c-2 -1
-15 -11 -29 -22 l-25 -20 19 23 c11 12 24 22 29 22 6 0 8 -1 6 -3z m-235 -43
c20 -19 20 -25 0 -50 -14 -18 -14 -18 -3 5 10 21 9 27 -11 43 -12 10 -18 18
-12 18 6 0 18 -7 26 -16z m49 -1 c2 -10 8 -27 12 -38 3 -11 -1 -6 -11 10 -9
17 -22 33 -28 37 -7 5 -5 8 5 8 9 0 19 -8 22 -17z m-76 -69 c-3 -3 -12 -4 -19
-1 -8 3 -5 6 6 6 11 1 17 -2 13 -5z m-1402 -1904 c3 -6 -1 -7 -10 -4 -9 4 -30
-3 -48 -15 l-32 -22 28 25 c29 27 52 33 62 16z m35 -10 c0 -5 -4 -10 -10 -10
-5 0 -10 5 -10 10 0 6 5 10 10 10 6 0 10 -4 10 -10z m7257 -47 c-3 -10 -5 -2
-5 17 0 19 2 27 5 18 2 -10 2 -26 0 -35z m-6629 -9 c-3 -14 -5 -12 -10 9 -3
19 -2 25 4 19 6 -6 8 -18 6 -28z m62 32 c0 -2 -8 -10 -17 -17 -16 -13 -17 -12
-4 4 13 16 21 21 21 13z m67 -17 c2 -16 -1 -19 -9 -11 -5 5 -7 15 -4 21 10 15
12 14 13 -10z m6572 14 c0 -5 -4 -17 -9 -28 -8 -17 -8 -16 -7 8 1 15 5 27 9
27 4 0 8 -3 7 -7z m-7436 -33 c3 -11 1 -20 -4 -20 -5 0 -9 9 -9 20 0 11 2 20
4 20 2 0 6 -9 9 -20z m232 -1 c-10 -15 -25 -10 -19 6 4 8 10 12 15 9 5 -3 7
-10 4 -15z m-158 5 c-3 -3 -12 -4 -19 -1 -8 3 -5 6 6 6 11 1 17 -2 13 -5z m70
-26 c-3 -8 -6 -5 -6 6 -1 11 2 17 5 13 3 -3 4 -12 1 -19z m50 16 c-3 -3 -12
-4 -19 -1 -8 3 -5 6 6 6 11 1 17 -2 13 -5z m615 -35 c18 -1 19 -2 5 -6 -22 -6
-47 14 -46 36 0 11 3 9 9 -6 6 -14 19 -23 32 -24z m119 1 c7 0 9 -3 6 -6 -10
-10 -37 16 -36 35 0 11 3 9 9 -6 5 -13 15 -23 21 -23z m-61 8 c0 -12 -3 -18
-7 -14 -11 10 -12 36 -2 36 5 0 9 -10 9 -22z m6503 2 c3 -12 0 -20 -8 -20 -8
0 -11 8 -8 20 3 11 7 20 8 20 1 0 5 -9 8 -20z m-7263 6 c0 -2 -7 -7 -16 -10
-8 -3 -12 -2 -9 4 6 10 25 14 25 6z m-75 -16 c3 -6 -1 -7 -9 -4 -18 7 -21 14
-7 14 6 0 13 -4 16 -10z m710 0 c3 -5 1 -10 -4 -10 -6 0 -11 5 -11 10 0 6 2
10 4 10 3 0 8 -4 11 -10z m6755 0 c0 -5 -5 -10 -11 -10 -5 0 -7 5 -4 10 3 6 8
10 11 10 2 0 4 -4 4 -10z m-6513 -22 c-3 -8 -6 -5 -6 6 -1 11 2 17 5 13 3 -3
4 -12 1 -19z m733 -1922 c0 -2 -8 -10 -17 -17 -16 -13 -17 -12 -4 4 13 16 21
21 21 13z m-161 -61 c0 -5 -4 -3 -9 5 -5 8 -9 22 -9 30 0 16 17 -16 18 -35z
m44 10 c-3 -9 -8 -14 -10 -11 -3 3 -2 9 2 15 9 16 15 13 8 -4z m170 -2 c-7 -2
-19 -2 -25 0 -7 3 -2 5 12 5 14 0 19 -2 13 -5z m20 -38 c-10 -8 -27 -14 -38
-14 -16 1 -15 2 5 8 14 4 30 17 35 29 8 18 11 20 13 7 2 -9 -5 -23 -15 -30z
m3427 19 c0 -14 -4 -23 -9 -19 -5 3 -12 1 -16 -5 -16 -26 -95 2 -95 34 0 6 7
0 16 -12 21 -31 75 -27 89 6 13 28 15 28 15 -4z m-3317 9 c-7 -2 -21 -2 -30 0
-10 3 -4 5 12 5 17 0 24 -2 18 -5z m837 3 c0 -3 -4 -8 -10 -11 -5 -3 -10 -1
-10 4 0 6 5 11 10 11 6 0 10 -2 10 -4z m53 -3 c-7 -2 -21 -2 -30 0 -10 3 -4 5
12 5 17 0 24 -2 18 -5z m3254 -34 c11 0 13 -3 5 -6 -17 -7 -42 15 -41 36 0 11
3 9 9 -6 5 -13 17 -23 27 -24z m63 15 c0 -8 -8 -14 -17 -14 -14 0 -15 2 -4 9
8 5 10 14 6 21 -5 9 -4 11 3 6 7 -4 12 -14 12 -22z m113 19 c-7 -2 -19 -2 -25
0 -7 3 -2 5 12 5 14 0 19 -2 13 -5z m-1380 -17 c3 -8 0 -17 -7 -19 -10 -4 -12
1 -9 14 6 23 9 24 16 5z m-3253 -5 c0 -3 -4 -12 -9 -19 -6 -11 -9 -9 -13 5 -3
12 0 20 8 20 8 0 14 -3 14 -6z m131 -8 c13 -16 12 -17 -3 -4 -10 7 -18 15 -18
17 0 8 8 3 21 -13z m253 2 c3 -8 1 -15 -4 -15 -6 0 -10 7 -10 15 0 8 2 15 4
15 2 0 6 -7 10 -15z m346 0 c0 -8 -7 -15 -15 -15 -13 0 -14 3 -3 15 16 18 18
18 18 0z m370 6 c0 -5 -7 -12 -16 -15 -14 -5 -15 -4 -4 9 14 17 20 19 20 6z
m2310 0 c0 -3 -4 -12 -9 -19 -6 -11 -9 -9 -13 5 -3 12 0 20 8 20 8 0 14 -3 14
-6z m305 -9 c13 3 22 1 19 -3 -9 -15 -51 -10 -65 9 -13 15 -12 16 3 3 10 -7
29 -11 43 -9z m79 3 c3 -8 1 -15 -4 -15 -6 0 -10 7 -10 15 0 8 2 15 4 15 2 0
6 -7 10 -15z m406 0 c0 -8 -4 -15 -10 -15 -5 0 -7 7 -4 15 4 8 8 15 10 15 2 0
4 -7 4 -15z m-3875 -5 c-3 -5 -14 -10 -23 -9 -14 0 -13 2 3 9 27 11 27 11 20
0z m655 2 c0 -10 -68 -13 -73 -4 -3 4 13 8 34 9 21 0 39 -2 39 -5z m235 -2
c-3 -5 -12 -10 -18 -10 -7 0 -6 4 3 10 19 12 23 12 15 0z m90 0 c-3 -5 -12
-10 -18 -10 -7 0 -6 4 3 10 19 12 23 12 15 0z m3085 0 c0 -5 -2 -10 -4 -10 -3
0 -8 5 -11 10 -3 6 -1 10 4 10 6 0 11 -4 11 -10z m195 0 c13 -6 15 -9 5 -9 -8
0 -22 4 -30 9 -18 12 -2 12 25 0z m90 0 c3 -5 1 -10 -4 -10 -6 0 -11 5 -11 10
0 6 2 10 4 10 3 0 8 -4 11 -10z m-4688 -36 c-3 -3 -12 -4 -19 -1 -8 3 -5 6 6
6 11 1 17 -2 13 -5z m3410 0 c-3 -3 -12 -4 -19 -1 -8 3 -5 6 6 6 11 1 17 -2
13 -5z m536 -1 c-7 -2 -19 -2 -25 0 -7 3 -2 5 12 5 14 0 19 -2 13 -5z"/>
<path d="M7213 9305 c0 -8 4 -12 9 -9 4 3 8 9 8 15 0 5 -4 9 -8 9 -5 0 -9 -7
-9 -15z"/>
<path d="M7226 9095 c-11 -8 -15 -15 -10 -15 6 0 19 7 30 15 10 8 15 14 9 14
-5 0 -19 -6 -29 -14z"/>
<path d="M2097 7309 c7 -7 15 -10 18 -7 3 3 -2 9 -12 12 -14 6 -15 5 -6 -5z"/>
<path d="M1368 7303 c7 -3 16 -2 19 1 4 3 -2 6 -13 5 -11 0 -14 -3 -6 -6z"/>
<path d="M1464 7257 c-14 -46 -3 -134 20 -149 23 -15 26 -6 26 76 0 75 -2 84
-20 89 -13 3 -21 -1 -26 -16z"/>
<path d="M1946 7253 c-4 -9 0 -23 9 -32 9 -9 15 -11 15 -4 0 6 -6 13 -12 16
-10 3 -10 7 1 20 7 10 9 17 3 17 -5 0 -13 -8 -16 -17z"/>
<path d="M1923 7211 c0 -11 5 -18 9 -15 4 3 5 11 1 19 -7 21 -12 19 -10 -4z"/>
<path d="M1931 7164 c0 -11 3 -14 6 -6 3 7 2 16 -1 19 -3 4 -6 -2 -5 -13z"/>
<path d="M1951 7138 c-1 -21 15 -32 25 -17 4 7 3 9 -4 5 -6 -3 -13 2 -15 11
-4 16 -5 16 -6 1z"/>
<path d="M1960 7095 c0 -2 10 -10 23 -16 20 -11 21 -11 8 4 -13 16 -31 23 -31
12z"/>
<path d="M2048 7083 c6 -2 18 -2 25 0 6 3 1 5 -13 5 -14 0 -19 -2 -12 -5z"/>
<path d="M1444 3235 c-1 -14 2 -22 7 -19 11 6 12 44 2 44 -5 0 -9 -11 -9 -25z"/>
<path d="M2008 3223 c6 -2 18 -2 25 0 6 3 1 5 -13 5 -14 0 -19 -2 -12 -5z"/>
<path d="M2108 3213 c7 -3 16 -2 19 1 4 3 -2 6 -13 5 -11 0 -14 -3 -6 -6z"/>
<path d="M1462 3161 c1 -27 0 -47 -4 -44 -5 2 -8 0 -8 -6 0 -5 5 -13 10 -16 6
-4 8 -10 5 -15 -6 -9 21 -40 36 -40 5 0 9 38 9 85 0 85 0 85 -26 85 -25 0 -26
-2 -22 -49z"/>
<path d="M1941 3154 c0 -11 3 -14 6 -6 3 7 2 16 -1 19 -3 4 -6 -2 -5 -13z"/>
<path d="M1951 3094 c0 -11 3 -14 6 -6 3 7 2 16 -1 19 -3 4 -6 -2 -5 -13z"/>
<path d="M1965 3060 c-3 -5 -1 -10 4 -10 6 0 11 5 11 10 0 6 -2 10 -4 10 -3 0
-8 -4 -11 -10z"/>
<path d="M1435 3049 c-4 -6 -5 -12 -2 -15 2 -3 7 2 10 11 7 17 1 20 -8 4z"/>
<path d="M1967 3029 c7 -7 15 -10 18 -7 3 3 -2 9 -12 12 -14 6 -15 5 -6 -5z"/>
<path d="M2088 3003 c7 -3 16 -2 19 1 4 3 -2 6 -13 5 -11 0 -14 -3 -6 -6z"/>
<path d="M3625 7006 c-37 -16 -82 -68 -91 -102 -11 -44 3 -105 33 -142 51 -63
56 -63 578 -60 425 3 473 5 502 20 33 19 90 101 73 106 -5 2 -4 12 3 23 10 16
9 21 -3 29 -9 6 -10 10 -3 10 32 0 -38 97 -84 116 -47 20 -964 20 -1008 0z
m1038 -71 c-12 -9 -24 -28 -26 -43 -4 -27 -4 -27 -6 -1 -1 25 35 76 47 64 3
-3 -4 -12 -15 -20z m-208 -46 c4 -11 4 -23 1 -26 -3 -4 -6 1 -6 10 0 9 -10 26
-22 38 -23 21 -23 21 -1 10 12 -6 25 -20 28 -32z m-88 9 c-3 -8 -6 -5 -6 6 -1
11 2 17 5 13 3 -3 4 -12 1 -19z m183 2 c-6 -11 -12 -20 -14 -20 -2 0 -2 9 1
20 3 11 9 20 15 20 5 0 4 -9 -2 -20z m-32 -46 c4 2 7 -9 7 -25 0 -22 -5 -29
-20 -29 -15 0 -17 2 -6 9 9 6 12 19 8 37 -4 16 -4 23 -1 16 3 -6 9 -10 12 -8z
m173 -22 c-7 -2 -18 1 -23 6 -8 8 -4 9 13 5 13 -4 18 -8 10 -11z m-268 1 c-7
-2 -19 -2 -25 0 -7 3 -2 5 12 5 14 0 19 -2 13 -5z"/>
<path d="M2848 5383 c7 -3 16 -2 19 1 4 3 -2 6 -13 5 -11 0 -14 -3 -6 -6z"/>
<path d="M2918 5373 c7 -3 16 -2 19 1 4 3 -2 6 -13 5 -11 0 -14 -3 -6 -6z"/>
<path d="M2841 5353 c0 -11 3 -13 6 -5 5 14 23 16 23 3 0 -5 -9 -12 -19 -16
-47 -15 -25 -75 35 -95 20 -7 48 -18 62 -26 l27 -14 3 72 c2 42 -1 75 -8 82
-8 8 -9 6 -4 -7 6 -17 3 -18 -32 -11 -22 3 -46 13 -55 20 -22 19 -39 17 -38
-3z"/>
<path d="M2805 5340 c-16 -7 -17 -9 -3 -9 9 -1 20 4 23 9 7 11 7 11 -20 0z"/>
<path d="M2790 5240 c0 -5 5 -10 11 -10 5 0 7 5 4 10 -3 6 -8 10 -11 10 -2 0
-4 -4 -4 -10z"/>
<path d="M2940 5175 c-9 -10 -9 -15 -1 -15 6 0 11 5 11 11 0 5 5 7 12 3 7 -4
8 -3 4 4 -9 15 -11 15 -26 -3z"/>
<path d="M2947 5073 c-11 -10 -8 -33 4 -33 5 0 7 5 3 11 -3 6 0 15 7 20 8 5 9
9 3 9 -6 0 -14 -3 -17 -7z"/>
<path d="M3760 5071 c-14 -3 -26 -12 -28 -20 -2 -10 2 -11 15 -5 10 4 30 7 46
7 15 0 26 0 25 1 -2 1 -10 6 -18 12 -8 6 -26 8 -40 5z"/>
<path d="M4137 5061 c-9 -11 -9 -13 0 -8 10 6 63 -35 63 -48 0 -3 -17 -5 -37
-5 -30 0 -45 8 -72 35 -25 26 -42 35 -67 35 -30 0 -34 -3 -35 -27 -1 -16 -1
-31 0 -35 0 -5 -15 -8 -34 -8 -33 0 -35 2 -35 35 0 31 -3 35 -26 35 -14 0 -23
-4 -20 -9 3 -4 -6 -18 -19 -31 -44 -41 -184 -30 -202 17 -21 54 -123 -50 -123
-126 0 -54 34 -114 77 -138 l40 -23 1829 0 c1420 1 1831 3 1843 13 12 10 13 9
7 -1 -6 -10 42 -12 257 -10 252 3 267 4 294 24 91 68 87 198 -7 262 -33 22
-43 23 -192 21 -95 -1 -155 -5 -152 -11 3 -5 12 -7 20 -4 8 3 25 -7 39 -22
l25 -27 -35 -3 c-29 -3 -42 3 -73 32 -26 26 -46 36 -69 36 -29 0 -32 -3 -35
-32 -2 -27 -8 -34 -29 -36 -18 -2 -29 3 -33 15 -4 10 -2 19 3 21 16 5 -14 32
-36 32 -10 0 -25 -5 -33 -11 -13 -9 -12 -10 2 -5 12 3 15 1 11 -10 -3 -8 -30
-21 -61 -30 -65 -19 -112 -10 -163 34 -34 28 -75 32 -94 8 -16 -20 -60 -46
-86 -51 -46 -10 -110 7 -144 36 -29 26 -40 29 -96 28 -50 0 -59 -2 -41 -10 13
-5 27 -7 32 -4 11 7 33 -22 28 -36 -5 -15 -78 -23 -78 -9 0 5 -8 10 -19 10
-10 0 -26 11 -35 25 -14 21 -24 25 -67 25 -36 0 -51 -4 -56 -16 -3 -8 -12 -13
-19 -10 -9 3 -11 0 -7 -11 5 -13 2 -15 -11 -10 -10 4 -22 7 -27 7 -6 0 -7 5
-3 12 5 7 3 8 -6 3 -10 -6 -9 -11 4 -21 15 -11 12 -13 -21 -18 -63 -9 -142 12
-128 34 3 5 0 12 -6 16 -8 5 -9 3 -4 -6 5 -8 3 -11 -6 -8 -8 3 -13 11 -11 17
1 6 -9 11 -23 11 -16 0 -25 -6 -25 -16 0 -9 -5 -12 -12 -8 -7 5 -8 3 -2 -7 17
-28 12 -39 -17 -39 -26 0 -29 3 -29 35 l0 35 -951 2 c-818 3 -952 1 -962 -11z
m2303 -161 c0 -9 -48 -1 -55 9 -2 4 9 5 26 3 16 -2 29 -8 29 -12z m-70 7 c0
-2 -10 -12 -22 -23 l-23 -19 19 23 c18 21 26 27 26 19z m530 -17 c0 -11 -2
-20 -4 -20 -2 0 -6 9 -9 20 -3 11 -1 20 4 20 5 0 9 -9 9 -20z m-285 -10 c3 -5
1 -10 -4 -10 -6 0 -11 5 -11 10 0 6 2 10 4 10 3 0 8 -4 11 -10z m54 -17 c0
-25 -1 -25 -8 -8 -5 11 -7 23 -4 28 8 14 13 7 12 -20z m-3061 -19 c-3 -14 -5
-12 -10 9 -3 19 -2 25 4 19 6 -6 8 -18 6 -28z m60 0 c-3 -14 -5 -12 -10 9 -3
19 -2 25 4 19 6 -6 8 -18 6 -28z m55 16 c-10 -11 -19 -20 -21 -20 -1 0 2 9 8
20 6 11 15 20 20 20 6 0 2 -9 -7 -20z m77 6 c-4 -4 -16 -4 -26 2 -16 9 -14 10
8 9 15 -1 23 -6 18 -11z m127 -8 c-1 -10 -2 -18 -4 -18 -1 0 -7 8 -12 18 -7
14 -6 19 4 19 7 0 13 -9 12 -19z m108 12 c3 -6 -1 -7 -9 -4 -18 7 -21 14 -7
14 6 0 13 -4 16 -10z m2043 -10 c-7 -11 -15 -15 -17 -9 -2 6 3 15 10 20 20 12
21 11 7 -11z m117 10 c-3 -5 -12 -7 -20 -3 -21 7 -19 13 6 13 11 0 18 -4 14
-10z m54 -12 c-5 -10 -11 -18 -12 -18 -2 0 -3 8 -3 18 0 10 6 19 13 19 8 0 9
-6 2 -19z m320 -12 c-3 -3 -11 5 -18 17 -13 21 -12 21 5 5 10 -10 16 -20 13
-22z m158 28 c-3 -3 -12 -4 -19 -1 -8 3 -5 6 6 6 11 1 17 -2 13 -5z m233 -9
c0 -8 -2 -15 -4 -15 -2 0 -6 7 -10 15 -3 8 -1 15 4 15 6 0 10 -7 10 -15z m55
4 c11 -16 1 -19 -13 -3 -7 8 -8 14 -3 14 5 0 13 -5 16 -11z m67 -39 c2 -22 0
-40 -3 -40 -4 0 -9 20 -10 44 -2 24 -1 42 2 40 4 -2 9 -22 11 -44z m68 46 c0
-2 -7 -7 -16 -10 -8 -3 -12 -2 -9 4 6 10 25 14 25 6z m62 -8 c-7 -7 -16 -7
-28 0 -14 8 -13 10 10 10 18 0 24 -4 18 -10z m129 3 c-8 -5 -10 -14 -6 -22 6
-11 5 -11 -5 -2 -14 12 -6 33 13 33 8 0 7 -3 -2 -9z m-1186 -22 c8 -24 -19
-59 -44 -58 -10 0 -8 4 7 9 28 12 38 36 22 55 -8 9 -8 15 -2 15 6 0 14 -9 17
-21z m332 -11 c-3 -7 -5 -2 -5 12 0 14 2 19 5 13 2 -7 2 -19 0 -25z m766 17
c-3 -9 -8 -14 -10 -11 -3 3 -2 9 2 15 9 16 15 13 8 -4z m152 -56 c15 -5 16 -8
4 -8 -19 -1 -46 28 -43 47 5 34 7 34 13 3 4 -21 14 -37 26 -42z m-798 24 c-3
-10 -5 -4 -5 12 0 17 2 24 5 18 2 -7 2 -21 0 -30z m131 6 c-3 -8 -7 -3 -11 10
-4 17 -3 21 5 13 5 -5 8 -16 6 -23z m-2935 -38 c-9 -13 -21 18 -16 39 7 25 7
25 13 -5 4 -16 5 -32 3 -34z m242 49 c-3 -5 -27 -9 -53 -8 l-47 1 50 7 c28 4
51 8 53 8 2 1 0 -2 -3 -8z m2368 3 c-7 -2 -19 -2 -25 0 -7 3 -2 5 12 5 14 0
19 -2 13 -5z m35 -24 c-3 -8 -7 -3 -11 10 -4 17 -3 21 5 13 5 -5 8 -16 6 -23z
m704 -19 c16 -6 18 -9 6 -9 -21 -1 -48 26 -47 47 0 12 3 10 9 -6 5 -12 20 -27
32 -32z m-798 0 c-6 -5 -24 21 -24 34 0 6 6 1 14 -10 8 -10 12 -21 10 -24z
m666 15 c0 -14 -4 -25 -9 -25 -4 0 -6 11 -3 25 2 14 6 25 8 25 2 0 4 -11 4
-25z m194 -23 c-1 -2 -11 1 -21 7 -10 6 -12 11 -5 11 6 0 12 8 13 18 1 11 4 8
8 -8 4 -14 7 -27 5 -28z m239 41 c-7 -2 -19 -2 -25 0 -7 3 -2 5 12 5 14 0 19
-2 13 -5z m-3523 -12 c0 -5 -7 -12 -16 -15 -14 -5 -15 -4 -4 9 14 17 20 19 20
6z m2144 -23 c-10 -16 -22 -7 -17 13 4 15 8 17 14 8 4 -7 5 -17 3 -21z m146
17 c4 3 6 -4 3 -16 -4 -16 -8 -17 -14 -7 -5 7 -8 20 -8 28 0 10 2 11 6 2 2 -6
8 -10 13 -7z m453 -5 c3 -11 1 -20 -4 -20 -5 0 -9 9 -9 20 0 11 2 20 4 20 2 0
6 -9 9 -20z m86 -12 c-7 -13 -14 -18 -16 -11 -3 7 2 19 9 27 18 20 22 12 7
-16z m204 12 c3 -11 1 -20 -4 -20 -5 0 -9 9 -9 20 0 11 2 20 4 20 2 0 6 -9 9
-20z m360 -6 c-26 -20 -36 -17 -15 4 9 11 21 17 25 14 5 -2 0 -10 -10 -18z
m-798 -7 c19 -4 19 -5 -1 -6 -12 0 -28 7 -35 17 -12 15 -12 16 1 6 8 -7 24
-14 35 -17z m-2835 -3 c0 -2 -7 -4 -15 -4 -8 0 -15 4 -15 10 0 5 7 7 15 4 8
-4 15 -8 15 -10z m79 0 c10 -9 -35 -3 -49 6 -11 8 -7 9 15 4 17 -4 32 -8 34
-10z m96 -2 c-3 -3 -11 0 -18 7 -9 10 -8 11 6 5 10 -3 15 -9 12 -12z m220 8
c3 -5 1 -10 -4 -10 -6 0 -11 5 -11 10 0 6 2 10 4 10 3 0 8 -4 11 -10z m40 0
c-3 -5 -12 -10 -18 -10 -7 0 -6 4 3 10 19 12 23 12 15 0z m2300 0 c-3 -5 -18
-9 -33 -9 l-27 1 30 8 c17 4 31 8 33 9 2 0 0 -3 -3 -9z"/>
<path d="M6243 5065 c0 -6 19 -8 44 -6 24 2 42 6 39 8 -10 10 -83 8 -83 -2z"/>
<path d="M6800 5068 c0 -5 16 -8 35 -8 19 0 37 0 40 0 3 0 5 3 5 6 0 4 -18 7
-40 8 -22 1 -40 -2 -40 -6z"/>
<path d="M7140 5071 c0 -18 29 -25 53 -13 l22 11 -22 0 c-12 1 -28 4 -37 7 -9
3 -16 1 -16 -5z"/>
<path d="M6190 5066 c0 -3 9 -10 20 -16 11 -6 20 -8 20 -6 0 3 -9 10 -20 16
-11 6 -20 8 -20 6z"/>
<path d="M6555 5060 c-3 -5 -1 -10 4 -10 6 0 11 5 11 10 0 6 -2 10 -4 10 -3 0
-8 -4 -11 -10z"/>
<path d="M7225 5060 c-3 -6 1 -7 9 -4 18 7 21 14 7 14 -6 0 -13 -4 -16 -10z"/>
<path d="M3931 5024 c0 -11 3 -14 6 -6 3 7 2 16 -1 19 -3 4 -6 -2 -5 -13z"/>
<path d="M6268 5023 c7 -3 16 -2 19 1 4 3 -2 6 -13 5 -11 0 -14 -3 -6 -6z"/>
<path d="M6608 5023 c7 -3 16 -2 19 1 4 3 -2 6 -13 5 -11 0 -14 -3 -6 -6z"/>
<path d="M7208 5023 c7 -3 16 -2 19 1 4 3 -2 6 -13 5 -11 0 -14 -3 -6 -6z"/>
<path d="M3609 4357 c-18 -12 -44 -38 -57 -57 -46 -67 -15 -176 61 -218 30
-16 157 -17 2122 -17 2319 0 2119 -6 2179 68 57 71 33 177 -50 224 l-39 23
-2091 0 -2091 0 -34 -23z"/>
<path d="M3631 3676 c-86 -31 -129 -153 -79 -225 12 -19 36 -44 51 -55 27 -20
41 -21 379 -24 302 -2 354 -1 374 13 28 18 38 19 28 3 -5 -8 -2 -9 9 -5 10 4
17 2 17 -4 0 -8 22 -9 68 -5 37 3 75 6 85 7 9 0 17 4 17 10 0 5 9 9 20 9 11 0
20 -4 20 -9 0 -5 11 -10 25 -12 48 -5 990 -3 1017 3 16 4 30 2 34 -3 7 -12
2064 -12 2064 0 0 15 32 22 46 10 35 -29 115 31 134 101 21 78 -30 167 -110
190 -56 16 -4155 12 -4199 -4z"/>
<path d="M8518 3223 c7 -3 16 -2 19 1 4 3 -2 6 -13 5 -11 0 -14 -3 -6 -6z"/>
<path d="M8578 3223 c7 -3 16 -2 19 1 4 3 -2 6 -13 5 -11 0 -14 -3 -6 -6z"/>
<path d="M8524 3205 c-36 -15 -44 -31 -44 -85 0 -70 72 -104 126 -60 16 13 17
13 12 -1 -4 -9 -1 -16 7 -16 10 0 11 5 4 18 -5 10 -6 25 -3 34 19 47 3 84 -46
110 -21 11 -31 11 -56 0z"/>
<path d="M8508 3003 c7 -3 16 -2 19 1 4 3 -2 6 -13 5 -11 0 -14 -3 -6 -6z"/>
<path d="M3611 2971 c-44 -23 -81 -85 -81 -135 0 -45 30 -103 68 -131 27 -20
45 -20 2131 -23 2037 -2 2105 -2 2133 16 16 11 38 32 48 47 17 26 17 30 3 52
-9 13 -13 26 -10 29 3 3 8 -4 12 -15 8 -26 21 -27 24 -3 8 71 -13 122 -69 159
l-33 23 -2096 -1 c-1984 0 -2098 -1 -2130 -18z m1079 -81 c-20 -13 -33 -13
-25 0 3 6 14 10 23 10 15 0 15 -2 2 -10z m507 4 c-3 -3 -12 -4 -19 -1 -8 3 -5
6 6 6 11 1 17 -2 13 -5z m-230 -56 c-2 -13 -4 -5 -4 17 -1 22 1 32 4 23 2 -10
2 -28 0 -40z m-326 19 c-10 -9 -11 -8 -5 6 3 10 9 15 12 12 3 -3 0 -11 -7 -18z
m546 -59 c-2 -18 -4 -6 -4 27 0 33 2 48 4 33 2 -15 2 -42 0 -60z m-814 59 c3
-8 1 -20 -4 -28 -6 -10 -9 -7 -9 14 0 29 5 35 13 14z m115 -12 c-3 -3 -9 2
-12 12 -6 14 -5 15 5 6 7 -7 10 -15 7 -18z m363 15 c10 -6 19 -16 19 -23 0 -8
-3 -9 -8 -1 -4 6 -16 16 -27 22 -25 14 -11 16 16 2z m528 -29 c-2 -6 -10 2
-17 17 -11 25 -11 25 4 10 9 -9 15 -21 13 -27z m421 24 c-6 -8 -8 -20 -4 -27
5 -10 4 -10 -6 -1 -11 10 -11 15 0 28 7 8 15 15 17 15 3 0 0 -7 -7 -15z
m-1246 -10 c-4 -8 -8 -15 -10 -15 -2 0 -4 7 -4 15 0 8 4 15 10 15 5 0 7 -7 4
-15z m706 5 c0 -5 -2 -10 -4 -10 -3 0 -8 5 -11 10 -3 6 -1 10 4 10 6 0 11 -4
11 -10z m180 6 c0 -2 -8 -10 -17 -17 -16 -13 -17 -12 -4 4 13 16 21 21 21 13z
m66 -36 c0 -22 3 -40 8 -40 5 0 7 -2 4 -5 -3 -3 -12 -3 -21 1 -13 5 -14 10 -6
25 5 11 7 24 4 29 -6 9 1 30 10 30 1 0 2 -18 1 -40z m174 21 c-8 -16 -6 -20 8
-24 13 -4 11 -5 -5 -6 -13 0 -23 2 -23 5 0 9 20 44 26 44 2 0 0 -9 -6 -19z
m71 2 c13 -16 12 -17 -3 -4 -10 7 -18 15 -18 17 0 8 8 3 21 -13z m2034 8 c3
-5 1 -12 -5 -16 -5 -3 -10 1 -10 9 0 18 6 21 15 7z m77 -16 c10 -23 9 -29 -12
-48 -21 -19 -22 -20 -7 -1 21 26 21 38 1 58 -8 9 -11 16 -4 16 6 0 16 -11 22
-25z m-2545 -17 c-3 -8 -6 -5 -6 6 -1 11 2 17 5 13 3 -3 4 -12 1 -19z m235 -7
c2 -17 1 -28 -4 -25 -8 5 -12 54 -4 54 2 0 6 -13 8 -29z m-902 -14 c0 -5 -4
-5 -10 -2 -5 3 -10 14 -10 23 0 15 2 15 10 2 5 -8 10 -19 10 -23z m98 26 c-10
-2 -28 -2 -40 0 -13 2 -5 4 17 4 22 1 32 -1 23 -4z m504 -23 c3 -16 1 -30 -4
-30 -4 0 -8 14 -8 30 0 17 2 30 4 30 2 0 6 -13 8 -30z m2538 -13 c0 -5 -4 -5
-10 -2 -5 3 -10 14 -10 23 0 15 2 15 10 2 5 -8 10 -19 10 -23z m-3330 19 c0
-2 -8 -10 -17 -17 -16 -13 -17 -12 -4 4 13 16 21 21 21 13z m73 -11 c-3 -9 -8
-14 -10 -11 -3 3 -2 9 2 15 9 16 15 13 8 -4z m202 -5 c-10 -11 -22 -20 -28
-20 -5 0 1 9 14 20 31 25 37 25 14 0z m328 -14 c-3 -4 -9 -2 -14 5 -13 22 -11
31 5 17 8 -7 12 -17 9 -22z m377 2 c0 -5 -7 -3 -15 6 -8 8 -15 18 -15 22 0 3
7 1 15 -6 8 -7 15 -17 15 -22z m183 -29 c-5 -5 -7 7 -4 29 5 34 6 35 9 8 2
-16 0 -32 -5 -37z m-303 36 c0 -8 -4 -15 -10 -15 -5 0 -7 7 -4 15 4 8 8 15 10
15 2 0 4 -7 4 -15z m57 -7 c-3 -8 -6 -5 -6 6 -1 11 2 17 5 13 3 -3 4 -12 1
-19z m308 12 c3 -5 1 -10 -4 -10 -6 0 -11 5 -11 10 0 6 2 10 4 10 3 0 8 -4 11
-10z m-998 -16 c-3 -3 -12 -4 -19 -1 -8 3 -5 6 6 6 11 1 17 -2 13 -5z m1040 0
c-3 -3 -12 -4 -19 -1 -8 3 -5 6 6 6 11 1 17 -2 13 -5z m-1203 -19 c4 -10 -1
-15 -15 -15 -17 0 -18 2 -7 15 16 18 15 18 22 0z m1073 -21 c-3 -3 -12 -4 -19
-1 -8 3 -5 6 6 6 11 1 17 -2 13 -5z"/>
<path d="M2898 1313 c7 -3 16 -2 19 1 4 3 -2 6 -13 5 -11 0 -14 -3 -6 -6z"/>
<path d="M2948 1303 c7 -3 16 -2 19 1 4 3 -2 6 -13 5 -11 0 -14 -3 -6 -6z"/>
<path d="M2795 1290 c-3 -6 1 -7 9 -4 18 7 21 14 7 14 -6 0 -13 -4 -16 -10z"/>
<path d="M2836 1274 c-13 -35 -6 -64 19 -76 19 -8 24 -17 20 -36 -2 -13 -1
-21 3 -17 4 3 7 12 7 17 0 6 6 13 14 16 8 3 11 0 7 -7 -5 -7 -1 -9 8 -5 9 3
16 1 16 -5 0 -6 7 -11 16 -11 8 0 13 -4 10 -8 -3 -5 1 -9 9 -9 12 0 15 16 15
71 l0 71 -53 3 c-28 1 -59 5 -68 8 -10 2 -19 -2 -23 -12z"/>
<path d="M2770 1206 c0 -2 8 -10 18 -17 15 -13 16 -12 3 4 -13 16 -21 21 -21
13z"/>
<path d="M2835 1180 c3 -5 8 -10 11 -10 2 0 4 5 4 10 0 6 -5 10 -11 10 -5 0
-7 -4 -4 -10z"/>
<path d="M2900 1140 c0 -5 5 -10 10 -10 6 0 10 5 10 10 0 6 -4 10 -10 10 -5 0
-10 -4 -10 -10z"/>
<path d="M2944 1112 c-8 -5 -7 -11 4 -22 14 -13 15 -12 9 2 -3 9 -1 19 6 22 7
2 8 5 2 5 -5 0 -15 -3 -21 -7z"/>
<path d="M2779 1025 c-1 -3 -2 -8 -3 -12 -1 -5 -5 -15 -10 -23 -7 -12 -6 -13
4 -3 13 12 23 43 14 43 -2 0 -5 -2 -5 -5z"/>
<path d="M2956 1007 c3 -10 9 -15 12 -12 3 3 0 11 -7 18 -10 9 -11 8 -5 -6z"/>
<path d="M2810 990 c-8 -5 -10 -10 -5 -10 6 0 17 5 25 10 8 5 11 10 5 10 -5 0
-17 -5 -25 -10z"/>
<path d="M2868 983 c6 -2 10 -8 7 -13 -3 -4 5 -6 17 -2 21 5 21 6 2 13 -10 4
-23 8 -29 8 -5 -1 -4 -3 3 -6z"/>
<path d="M8050 7400 c8 -5 20 -10 25 -10 6 0 3 5 -5 10 -8 5 -19 10 -25 10 -5
0 -3 -5 5 -10z"/>
<path d="M7900 7331 c0 -6 4 -13 10 -16 6 -3 7 1 4 9 -7 18 -14 21 -14 7z"/>
<path d="M7965 7280 c-3 -5 -1 -10 4 -10 6 0 11 5 11 10 0 6 -2 10 -4 10 -3 0
-8 -4 -11 -10z"/>
<path d="M8045 7246 c22 -20 44 -36 49 -36 8 0 -2 9 -49 48 -33 27 -33 17 0
-12z"/>
<path d="M8070 7125 c0 -2 6 -8 13 -14 10 -8 14 -7 14 2 0 8 -6 14 -14 14 -7
0 -13 -1 -13 -2z"/>
<path d="M7928 7093 c7 -3 16 -2 19 1 4 3 -2 6 -13 5 -11 0 -14 -3 -6 -6z"/>
<path d="M7382 9330 c0 -19 2 -27 5 -17 2 9 2 25 0 35 -3 9 -5 1 -5 -18z"/>
<path d="M7493 9241 c-29 -24 -29 -32 2 -61 l25 -23 0 51 c0 29 -1 52 -2 52
-2 -1 -13 -9 -25 -19z"/>
<path d="M7430 9192 c0 -12 3 -12 15 -2 8 7 15 13 15 15 0 1 -7 2 -15 2 -8 0
-15 -7 -15 -15z"/>
<path d="M7471 9161 c-8 -5 -9 -11 -3 -15 5 -3 12 1 16 9 6 17 6 18 -13 6z"/>
<path d="M7340 9090 c0 -5 5 -10 11 -10 5 0 7 5 4 10 -3 6 -8 10 -11 10 -2 0
-4 -4 -4 -10z"/>
<path d="M1212 7421 c-11 -7 -10 -10 3 -15 25 -9 32 -7 15 5 -11 8 -8 9 15 5
22 -5 26 -4 15 4 -18 12 -31 12 -48 1z"/>
<path d="M1190 7165 c0 -38 4 -55 13 -55 37 0 50 65 19 93 -28 26 -32 21 -32
-38z"/>
<path d="M8290 7110 c0 -18 19 -40 35 -40 7 0 6 3 -1 8 -6 4 -16 16 -22 27 -8
15 -11 16 -12 5z"/>
<path d="M1192 3103 c3 -49 6 -57 24 -58 13 -1 21 5 22 18 0 11 7 24 14 28 11
7 11 9 0 9 -7 0 -11 4 -7 9 6 10 -32 51 -47 51 -5 0 -8 -26 -6 -57z"/>
<path d="M8741 3144 c0 -11 3 -14 6 -6 3 7 2 16 -1 19 -3 4 -6 -2 -5 -13z"/>
<path d="M1270 3140 c-13 -8 -12 -10 3 -10 9 0 17 5 17 10 0 12 -1 12 -20 0z"/>
<path d="M8766 3117 c3 -10 9 -15 12 -12 3 3 0 11 -7 18 -10 9 -11 8 -5 -6z"/>
<path d="M1257 3066 c-3 -8 0 -17 7 -19 10 -4 12 1 9 14 -6 23 -9 24 -16 5z"/>
<path d="M1215 3010 c-16 -7 -17 -9 -3 -9 9 -1 20 4 23 9 7 11 7 11 -20 0z"/>
</g>
</svg>
