<?xml version="1.0" standalone="no"?>
<!DOCTYPE svg PUBLIC "-//W3C//DTD SVG 20010904//EN"
 "http://www.w3.org/TR/2001/REC-SVG-20010904/DTD/svg10.dtd">
<svg version="1.0" xmlns="http://www.w3.org/2000/svg"
 width="512.000000pt" height="512.000000pt" viewBox="0 0 512.000000 512.000000"
 preserveAspectRatio="xMidYMid meet">
<metadata>
Created by potrace 1.16, written by Peter Selinger 2001-2019
</metadata>
<g transform="translate(0.000000,512.000000) scale(0.100000,-0.100000)"
fill="#000000" stroke="none">
<path d="M820 5100 c-19 -19 -20 -33 -20 -240 l0 -220 -58 0 c-94 0 -96 -3
-102 -176 l-5 -147 -42 -12 c-98 -29 -190 -111 -241 -215 l-27 -55 -3 -1137
-2 -1138 -140 0 c-196 0 -180 29 -180 -320 0 -330 -3 -320 100 -320 l59 0 3
-418 3 -417 29 -60 c38 -77 114 -153 191 -191 l60 -29 2195 0 2195 0 60 29
c77 38 153 114 191 191 l29 60 0 1355 0 1355 -29 60 c-17 33 -53 83 -80 111
-28 27 -78 63 -111 80 l-60 29 -337 3 -338 3 0 159 0 160 100 0 c152 0 140
-34 140 400 0 347 -1 361 -20 380 -20 20 -33 20 -780 20 -747 0 -760 0 -780
-20 -19 -19 -20 -33 -20 -380 0 -434 -12 -400 140 -400 l100 0 0 -160 0 -159
-337 -3 -338 -3 -60 -29 c-77 -38 -153 -114 -191 -191 l-29 -60 -3 -618 -3
-617 -79 0 -80 0 -2 1138 -3 1137 -27 55 c-51 104 -143 186 -241 215 l-42 12
-5 147 c-6 173 -8 176 -102 176 l-58 0 0 220 c0 207 -1 221 -20 240 -19 19
-33 20 -300 20 -267 0 -281 -1 -300 -20z m460 -300 l0 -160 -160 0 -160 0 0
160 0 160 160 0 160 0 0 -160z m160 -400 l0 -80 -320 0 -320 0 0 80 0 80 320
0 320 0 0 -80z m2800 -400 l0 -240 -640 0 -640 0 0 240 0 240 640 0 640 0 0
-240z m-2630 134 c54 -26 103 -75 127 -129 16 -36 18 -80 21 -422 l3 -383
-500 0 c-488 0 -502 -1 -521 -20 -20 -20 -20 -33 -20 -720 l0 -700 -120 0
-121 0 3 1103 c3 1036 4 1104 21 1142 34 76 104 132 182 146 22 4 229 6 460 6
406 -2 422 -3 465 -23z m2390 -694 l0 -160 -400 0 -400 0 0 160 0 160 400 0
400 0 0 -160z m-1280 -840 l0 -520 80 0 80 0 0 520 0 520 80 0 80 0 0 -520 0
-520 80 0 80 0 0 520 0 520 80 0 80 0 0 -520 0 -520 80 0 80 0 0 520 0 520 80
0 80 0 0 -520 0 -520 80 0 80 0 0 520 0 520 80 0 80 0 0 -520 0 -520 80 0 80
0 0 520 0 520 80 0 80 0 0 -520 0 -520 80 0 80 0 0 520 0 520 80 0 80 0 0
-520 0 -520 80 0 80 0 0 510 0 511 28 -15 c41 -21 97 -87 113 -132 12 -32 14
-260 14 -1314 0 -1054 -2 -1282 -14 -1314 -18 -53 -77 -115 -131 -140 -45 -21
-53 -21 -1182 -24 l-1138 -2 33 62 32 63 3 417 3 418 59 0 c103 0 100 -10 100
320 0 267 -1 281 -20 300 -19 19 -33 20 -240 20 l-221 0 3 583 c3 535 4 585
21 622 21 46 70 100 110 121 l27 15 0 -511 0 -510 80 0 80 0 0 520 0 520 80 0
80 0 0 -520z m-960 -200 l0 -640 -440 0 -440 0 0 640 0 640 440 0 440 0 0
-640z m800 -960 l0 -160 -120 0 -120 0 0 80 0 80 -80 0 -80 0 0 -80 0 -80 -80
0 -80 0 0 80 0 80 -80 0 -80 0 0 -80 0 -80 -80 0 -80 0 0 80 0 80 -80 0 -80 0
0 -80 0 -80 -680 0 -680 0 0 160 0 160 1200 0 1200 0 0 -160z m-162 -702 c-3
-364 -4 -385 -24 -428 -25 -54 -87 -113 -140 -131 -58 -21 -1690 -21 -1748 0
-45 16 -111 72 -132 113 l-15 28 531 0 c517 0 531 1 550 20 19 19 20 33 20
300 0 267 -1 281 -20 300 -20 20 -33 20 -560 20 l-540 0 0 80 0 80 1041 0
1040 0 -3 -382z m-1118 -98 l0 -160 -480 0 -480 0 0 160 0 160 480 0 480 0 0
-160z"/>
<path d="M3200 4000 l0 -80 80 0 80 0 0 80 0 80 -80 0 -80 0 0 -80z"/>
<path d="M3520 4000 l0 -80 80 0 80 0 0 80 0 80 -80 0 -80 0 0 -80z"/>
<path d="M3840 4000 l0 -80 80 0 80 0 0 80 0 80 -80 0 -80 0 0 -80z"/>
<path d="M2980 1820 c-20 -20 -20 -33 -20 -700 0 -667 0 -680 20 -700 20 -20
33 -20 660 -20 627 0 640 0 660 20 20 20 20 33 20 700 0 667 0 680 -20 700
-20 20 -33 20 -660 20 -627 0 -640 0 -660 -20z m1180 -700 l0 -560 -520 0
-520 0 0 560 0 560 520 0 520 0 0 -560z"/>
<path d="M1040 2800 l0 -80 280 0 280 0 0 80 0 80 -280 0 -280 0 0 -80z"/>
<path d="M1040 2480 l0 -80 280 0 280 0 0 80 0 80 -280 0 -280 0 0 -80z"/>
<path d="M1040 2160 l0 -80 280 0 280 0 0 80 0 80 -280 0 -280 0 0 -80z"/>
</g>
</svg>
