<?xml version="1.0" standalone="no"?>
<!DOCTYPE svg PUBLIC "-//W3C//DTD SVG 20010904//EN"
 "http://www.w3.org/TR/2001/REC-SVG-20010904/DTD/svg10.dtd">
<svg version="1.0" xmlns="http://www.w3.org/2000/svg"
 width="512.000000pt" height="512.000000pt" viewBox="0 0 512.000000 512.000000"
 preserveAspectRatio="xMidYMid meet">

<g transform="translate(0.000000,512.000000) scale(0.100000,-0.100000)"
fill="#000000" stroke="none">
<path d="M2445 4470 c-266 -41 -503 -236 -595 -490 -32 -86 -55 -231 -47 -294
5 -39 3 -43 -37 -71 -114 -83 -113 -251 2 -356 27 -24 55 -48 64 -54 14 -8 20
-45 32 -186 16 -180 28 -232 71 -305 24 -41 119 -134 136 -134 6 0 8 -64 7
-152 l-3 -151 -425 -148 c-234 -82 -436 -154 -449 -161 -38 -20 -89 -74 -108
-116 -16 -33 -18 -89 -21 -584 l-3 -548 81 0 80 0 0 534 0 534 24 23 c17 16
161 71 448 171 233 81 426 148 430 148 3 0 43 -41 88 -91 l82 -92 -31 -19
c-17 -11 -31 -26 -31 -33 0 -7 21 -73 46 -146 30 -88 46 -149 45 -179 -1 -25
-19 -223 -40 -440 -22 -217 -38 -396 -36 -398 2 -2 36 -6 77 -9 l74 -6 40 404
39 404 57 3 57 3 5 -33 c6 -34 76 -754 76 -774 0 -7 24 -8 77 -2 42 5 77 9 78
11 1 1 -17 188 -39 415 l-40 413 56 168 56 169 -21 20 -20 21 83 93 c45 51 88
93 94 92 6 -1 197 -66 425 -145 292 -102 420 -151 437 -168 l24 -24 0 -533 0
-534 80 0 81 0 -3 548 c-3 495 -5 551 -21 584 -19 42 -70 96 -109 117 -14 7
-217 80 -450 161 l-423 147 -3 146 -3 145 35 21 c74 46 148 151 169 241 3 14
13 103 22 197 l16 173 53 52 c109 110 116 267 15 352 -32 27 -32 28 -35 134
-8 338 -229 622 -554 711 -87 24 -230 34 -315 21z m314 -183 c174 -61 308
-196 373 -377 21 -58 23 -82 23 -230 -1 -103 3 -168 10 -172 5 -4 24 -8 41 -8
18 0 38 -8 49 -20 16 -17 17 -25 7 -58 -14 -47 -35 -67 -88 -85 l-39 -14 -21
-234 c-29 -322 -16 -301 -297 -478 l-178 -111 -81 0 -81 0 -178 116 c-98 64
-192 131 -208 149 -46 53 -59 106 -76 305 -24 289 -19 270 -67 270 -54 0 -108
51 -108 102 0 47 15 58 77 58 l52 0 -5 143 c-5 110 -3 157 9 208 54 227 221
397 446 454 89 23 249 14 340 -18z m-424 -1882 l86 -55 136 0 136 0 87 55 c48
30 90 55 94 55 3 0 6 -51 6 -113 l0 -113 -91 -102 c-50 -56 -93 -102 -96 -102
-3 0 -36 22 -73 49 l-68 50 -62 -45 c-34 -25 -63 -44 -64 -42 -2 2 -44 49 -95
106 l-91 103 0 104 c0 58 2 105 5 105 3 0 44 -25 90 -55z m285 -517 c33 -23
60 -45 60 -48 0 -3 -11 -37 -23 -76 l-24 -69 -80 -3 -81 -3 -26 77 c-14 43
-25 78 -23 79 1 1 29 20 61 43 33 23 63 42 68 42 5 0 36 -19 68 -42z"/>
<path d="M1790 1410 l0 -80 -120 0 -120 0 0 -75 0 -75 200 0 200 0 0 -111 c0
-109 0 -111 -32 -150 -29 -36 -35 -39 -80 -39 l-48 0 0 -80 0 -80 83 0 83 0
77 94 77 95 0 210 0 211 -80 0 -80 0 0 80 0 80 -80 0 -80 0 0 -80z"/>
</g>
</svg>
