<?xml version="1.0" standalone="no"?>
<!DOCTYPE svg PUBLIC "-//W3C//DTD SVG 20010904//EN"
 "http://www.w3.org/TR/2001/REC-SVG-20010904/DTD/svg10.dtd">
<svg version="1.0" xmlns="http://www.w3.org/2000/svg"
 width="512.000000pt" height="512.000000pt" viewBox="0 0 512.000000 512.000000"
 preserveAspectRatio="xMidYMid meet">

<g transform="translate(0.000000,512.000000) scale(0.100000,-0.100000)"
fill="#000000" stroke="none">
<path d="M322 2893 c3 -2106 4 -2231 21 -2287 62 -209 173 -362 339 -473 254
-168 590 -176 845 -18 l73 45 72 -45 c244 -150 572 -150 816 0 l72 45 73 -45
c145 -89 329 -129 500 -107 117 15 223 50 314 107 l73 45 72 -45 c256 -158
592 -150 846 18 166 111 277 264 339 473 17 56 18 181 21 2287 l2 2227 -2240
0 -2240 0 2 -2227z m4158 -110 c0 -2193 2 -2090 -56 -2204 -14 -29 -55 -82
-90 -116 -144 -144 -354 -180 -542 -93 -125 58 -242 209 -258 333 -4 26 -10
47 -14 47 -4 0 -10 -21 -14 -47 -10 -78 -59 -168 -130 -239 -146 -145 -356
-182 -544 -94 -125 58 -242 209 -258 333 -4 26 -10 47 -14 47 -4 0 -10 -21
-14 -47 -10 -78 -59 -168 -130 -239 -146 -145 -356 -182 -544 -94 -125 58
-242 209 -258 333 -4 26 -10 47 -14 47 -4 0 -10 -21 -14 -47 -16 -124 -133
-275 -258 -333 -188 -87 -398 -51 -542 93 -35 34 -76 87 -90 116 -58 114 -56
11 -56 2204 l0 2017 1920 0 1920 0 0 -2017z"/>
<path d="M1600 4160 l0 -320 960 0 960 0 0 320 0 320 -960 0 -960 0 0 -320z"/>
<path d="M960 3040 l0 -160 1600 0 1600 0 0 160 0 160 -1600 0 -1600 0 0 -160z"/>
<path d="M960 2400 l0 -160 1600 0 1600 0 0 160 0 160 -1600 0 -1600 0 0 -160z"/>
<path d="M960 1760 l0 -160 1600 0 1600 0 0 160 0 160 -1600 0 -1600 0 0 -160z"/>
</g>
</svg>
